{
	"asset":{
		"generator":"Khronos glTF Blender I/O v4.2.57",
		"version":"2.0"
	},
	"scene":0,
	"scenes":[
		{
			"name":"Scene",
			"nodes":[
				0
			]
		}
	],
	"nodes":[
		{
			"mesh":0,
			"name":"Cylinder"
		}
	],
	"materials":[
		{
			"doubleSided":true,
			"name":"Material.001",
			"normalTexture":{
				"index":0
			},
			"pbrMetallicRoughness":{
				"baseColorTexture":{
					"index":1
				},
				"metallicFactor":0,
				"metallicRoughnessTexture":{
					"index":2
				}
			}
		}
	],
	"meshes":[
		{
			"name":"Cylinder",
			"primitives":[
				{
					"attributes":{
						"POSITION":0,
						"NORMAL":1,
						"TEXCOORD_0":2
					},
					"indices":3,
					"material":0
				}
			]
		}
	],
	"textures":[
		{
			"sampler":0,
			"source":0
		},
		{
			"sampler":0,
			"source":1
		},
		{
			"sampler":0,
			"source":2
		}
	],
	"images":[
		{
			"mimeType":"image/png",
			"name":"base_base_Normal",
			"uri":"base_base_Normal.png"
		},
		{
			"mimeType":"image/png",
			"name":"base_base_BaseColor",
			"uri":"base_base_BaseColor.png"
		},
		{
			"mimeType":"image/png",
			"name":"base_base_Roughness",
			"uri":"base_base_Roughness.png"
		}
	],
	"accessors":[
		{
			"bufferView":0,
			"componentType":5126,
			"count":5272,
			"max":[
				2.2226099967956543,
				2.346137046813965,
				2.2226099967956543
			],
			"min":[
				-2.2226099967956543,
				0,
				-2.2226099967956543
			],
			"type":"VEC3"
		},
		{
			"bufferView":1,
			"componentType":5126,
			"count":5272,
			"type":"VEC3"
		},
		{
			"bufferView":2,
			"componentType":5126,
			"count":5272,
			"type":"VEC2"
		},
		{
			"bufferView":3,
			"componentType":5123,
			"count":27444,
			"type":"SCALAR"
		}
	],
	"bufferViews":[
		{
			"buffer":0,
			"byteLength":63264,
			"byteOffset":0,
			"target":34962
		},
		{
			"buffer":0,
			"byteLength":63264,
			"byteOffset":63264,
			"target":34962
		},
		{
			"buffer":0,
			"byteLength":42176,
			"byteOffset":126528,
			"target":34962
		},
		{
			"buffer":0,
			"byteLength":54888,
			"byteOffset":168704,
			"target":34963
		}
	],
	"samplers":[
		{
			"magFilter":9729,
			"minFilter":9987
		}
	],
	"buffers":[
		{
			"byteLength":223592,
			"uri":"base.bin"
		}
	]
}
