{
	"asset":{
		"generator":"Khronos glTF Blender I/O v4.2.57",
		"version":"2.0"
	},
	"scene":0,
	"scenes":[
		{
			"name":"Scene",
			"nodes":[
				2
			]
		}
	],
	"nodes":[
		{
			"mesh":0,
			"name":"eye.l",
			"rotation":[
				0,
				0,
				0.1849774271249771,
				0.9827427864074707
			],
			"translation":[
				-0.10385364294052124,
				0.5104919075965881,
				-0.22378821671009064
			]
		},
		{
			"mesh":0,
			"name":"eye.r",
			"rotation":[
				0,
				0,
				0.1849774271249771,
				0.9827427864074707
			],
			"translation":[
				-0.10086501389741898,
				0.5129420161247253,
				0.1863284558057785
			]
		},
		{
			"children":[
				0,
				1
			],
			"mesh":1,
			"name":"fish_lp",
			"rotation":[
				0,
				0,
				-0.6145987510681152,
				0.7888398766517639
			]
		}
	],
	"materials":[
		{
			"doubleSided":true,
			"name":"fishEye",
			"normalTexture":{
				"index":0
			},
			"pbrMetallicRoughness":{
				"baseColorTexture":{
					"index":1
				},
				"metallicFactor":0,
				"metallicRoughnessTexture":{
					"index":2
				}
			}
		},
		{
			"doubleSided":true,
			"name":"fishSkin",
			"normalTexture":{
				"index":3
			},
			"pbrMetallicRoughness":{
				"baseColorTexture":{
					"index":4
				},
				"metallicFactor":0,
				"metallicRoughnessTexture":{
					"index":5
				}
			}
		}
	],
	"meshes":[
		{
			"name":"Sphere.006",
			"primitives":[
				{
					"attributes":{
						"POSITION":0,
						"NORMAL":1,
						"TEXCOORD_0":2
					},
					"indices":3,
					"material":0
				}
			]
		},
		{
			"name":"Mesh.002",
			"primitives":[
				{
					"attributes":{
						"POSITION":4,
						"NORMAL":5,
						"TEXCOORD_0":6
					},
					"indices":7,
					"material":1
				}
			]
		}
	],
	"textures":[
		{
			"sampler":0,
			"source":0
		},
		{
			"sampler":0,
			"source":1
		},
		{
			"sampler":0,
			"source":2
		},
		{
			"sampler":0,
			"source":3
		},
		{
			"sampler":0,
			"source":4
		},
		{
			"sampler":0,
			"source":5
		}
	],
	"images":[
		{
			"mimeType":"image/png",
			"name":"fish_lp_fishEye_Normal",
			"uri":"fish_lp_fishEye_Normal.png"
		},
		{
			"mimeType":"image/png",
			"name":"fish_lp_fishEye_BaseColor",
			"uri":"fish_lp_fishEye_BaseColor.png"
		},
		{
			"mimeType":"image/png",
			"name":"fish_lp_fishEye_Roughness",
			"uri":"fish_lp_fishEye_Roughness.png"
		},
		{
			"mimeType":"image/png",
			"name":"fish_lp_fishSkin_Normal",
			"uri":"fish_lp_fishSkin_Normal.png"
		},
		{
			"mimeType":"image/png",
			"name":"fish_lp_fishSkin_BaseColor",
			"uri":"fish_lp_fishSkin_BaseColor.png"
		},
		{
			"mimeType":"image/png",
			"name":"fish_lp_fishSkin_Roughness",
			"uri":"fish_lp_fishSkin_Roughness.png"
		}
	],
	"accessors":[
		{
			"bufferView":0,
			"componentType":5126,
			"count":151,
			"max":[
				0.1345524936914444,
				0.1345525085926056,
				0.1345525085926056
			],
			"min":[
				-0.1345525085926056,
				-0.1345525085926056,
				-0.1345524936914444
			],
			"type":"VEC3"
		},
		{
			"bufferView":1,
			"componentType":5126,
			"count":151,
			"type":"VEC3"
		},
		{
			"bufferView":2,
			"componentType":5126,
			"count":151,
			"type":"VEC2"
		},
		{
			"bufferView":3,
			"componentType":5123,
			"count":672,
			"type":"SCALAR"
		},
		{
			"bufferView":4,
			"componentType":5126,
			"count":12231,
			"max":[
				0.6603795289993286,
				0.7334873080253601,
				0.610699474811554
			],
			"min":[
				-0.9084700345993042,
				-1.046781301498413,
				-0.6107397675514221
			],
			"type":"VEC3"
		},
		{
			"bufferView":5,
			"componentType":5126,
			"count":12231,
			"type":"VEC3"
		},
		{
			"bufferView":6,
			"componentType":5126,
			"count":12231,
			"type":"VEC2"
		},
		{
			"bufferView":7,
			"componentType":5123,
			"count":64392,
			"type":"SCALAR"
		}
	],
	"bufferViews":[
		{
			"buffer":0,
			"byteLength":1812,
			"byteOffset":0,
			"target":34962
		},
		{
			"buffer":0,
			"byteLength":1812,
			"byteOffset":1812,
			"target":34962
		},
		{
			"buffer":0,
			"byteLength":1208,
			"byteOffset":3624,
			"target":34962
		},
		{
			"buffer":0,
			"byteLength":1344,
			"byteOffset":4832,
			"target":34963
		},
		{
			"buffer":0,
			"byteLength":146772,
			"byteOffset":6176,
			"target":34962
		},
		{
			"buffer":0,
			"byteLength":146772,
			"byteOffset":152948,
			"target":34962
		},
		{
			"buffer":0,
			"byteLength":97848,
			"byteOffset":299720,
			"target":34962
		},
		{
			"buffer":0,
			"byteLength":128784,
			"byteOffset":397568,
			"target":34963
		}
	],
	"samplers":[
		{
			"magFilter":9729,
			"minFilter":9987
		}
	],
	"buffers":[
		{
			"byteLength":526352,
			"uri":"fish.bin"
		}
	]
}
