{
	"asset":{
		"generator":"Khronos glTF Blender I/O v4.2.57",
		"version":"2.0"
	},
	"scene":0,
	"scenes":[
		{
			"name":"Scene",
			"nodes":[
				0
			]
		}
	],
	"nodes":[
		{
			"mesh":0,
			"name":"mantisShrimp",
			"rotation":[
				-0.30070579051971436,
				0,
				0,
				0.9537169933319092
			]
		}
	],
	"materials":[
		{
			"doubleSided":true,
			"name":"mantis_body",
			"normalTexture":{
				"index":0
			},
			"pbrMetallicRoughness":{
				"baseColorTexture":{
					"index":1
				},
				"metallicFactor":0,
				"metallicRoughnessTexture":{
					"index":2
				}
			}
		},
		{
			"doubleSided":true,
			"name":"mantis_chitin",
			"normalTexture":{
				"index":3
			},
			"pbrMetallicRoughness":{
				"baseColorTexture":{
					"index":4
				},
				"metallicFactor":0,
				"metallicRoughnessTexture":{
					"index":5
				}
			}
		}
	],
	"meshes":[
		{
			"name":"Cylinder.001",
			"primitives":[
				{
					"attributes":{
						"POSITION":0,
						"NORMAL":1,
						"TEXCOORD_0":2
					},
					"indices":3,
					"material":0
				},
				{
					"attributes":{
						"POSITION":4,
						"NORMAL":5,
						"TEXCOORD_0":6
					},
					"indices":7,
					"material":1
				}
			]
		}
	],
	"textures":[
		{
			"sampler":0,
			"source":0
		},
		{
			"sampler":0,
			"source":1
		},
		{
			"sampler":0,
			"source":2
		},
		{
			"sampler":0,
			"source":3
		},
		{
			"sampler":0,
			"source":4
		},
		{
			"sampler":0,
			"source":5
		}
	],
	"images":[
		{
			"mimeType":"image/png",
			"name":"mantis_mantis_body_Normal",
			"uri":"mantis_mantis_body_Normal.png"
		},
		{
			"mimeType":"image/png",
			"name":"mantis_mantis_body_BaseColor",
			"uri":"mantis_mantis_body_BaseColor.png"
		},
		{
			"mimeType":"image/png",
			"name":"mantis_mantis_body_Roughness",
			"uri":"mantis_mantis_body_Roughness.png"
		},
		{
			"mimeType":"image/png",
			"name":"mantis_mantis_chitin_Normal",
			"uri":"mantis_mantis_chitin_Normal.png"
		},
		{
			"mimeType":"image/png",
			"name":"mantis_mantis_chitin_BaseColor",
			"uri":"mantis_mantis_chitin_BaseColor.png"
		},
		{
			"mimeType":"image/png",
			"name":"mantis_mantis_chitin_Roughness",
			"uri":"mantis_mantis_chitin_Roughness.png"
		}
	],
	"accessors":[
		{
			"bufferView":0,
			"componentType":5126,
			"count":27515,
			"max":[
				1.2914419174194336,
				4.348262786865234,
				2.0514557361602783
			],
			"min":[
				0.04954051971435547,
				2.7036123275756836,
				-0.7844870090484619
			],
			"type":"VEC3"
		},
		{
			"bufferView":1,
			"componentType":5126,
			"count":27515,
			"type":"VEC3"
		},
		{
			"bufferView":2,
			"componentType":5126,
			"count":27515,
			"type":"VEC2"
		},
		{
			"bufferView":3,
			"componentType":5123,
			"count":159576,
			"type":"SCALAR"
		},
		{
			"bufferView":4,
			"componentType":5126,
			"count":4757,
			"max":[
				1.6704959869384766,
				5.123611927032471,
				-0.3434619903564453
			],
			"min":[
				-0.3311499357223511,
				2.4417459964752197,
				-5.105310440063477
			],
			"type":"VEC3"
		},
		{
			"bufferView":5,
			"componentType":5126,
			"count":4757,
			"type":"VEC3"
		},
		{
			"bufferView":6,
			"componentType":5126,
			"count":4757,
			"type":"VEC2"
		},
		{
			"bufferView":7,
			"componentType":5123,
			"count":21168,
			"type":"SCALAR"
		}
	],
	"bufferViews":[
		{
			"buffer":0,
			"byteLength":330180,
			"byteOffset":0,
			"target":34962
		},
		{
			"buffer":0,
			"byteLength":330180,
			"byteOffset":330180,
			"target":34962
		},
		{
			"buffer":0,
			"byteLength":220120,
			"byteOffset":660360,
			"target":34962
		},
		{
			"buffer":0,
			"byteLength":319152,
			"byteOffset":880480,
			"target":34963
		},
		{
			"buffer":0,
			"byteLength":57084,
			"byteOffset":1199632,
			"target":34962
		},
		{
			"buffer":0,
			"byteLength":57084,
			"byteOffset":1256716,
			"target":34962
		},
		{
			"buffer":0,
			"byteLength":38056,
			"byteOffset":1313800,
			"target":34962
		},
		{
			"buffer":0,
			"byteLength":42336,
			"byteOffset":1351856,
			"target":34963
		}
	],
	"samplers":[
		{
			"magFilter":9729,
			"minFilter":9987
		}
	],
	"buffers":[
		{
			"byteLength":1394192,
			"uri":"mantisShrimp.bin"
		}
	]
}
