{
	"asset":{
		"generator":"Khronos glTF Blender I/O v4.2.57",
		"version":"2.0"
	},
	"scene":0,
	"scenes":[
		{
			"name":"Scene",
			"nodes":[
				7
			]
		}
	],
	"nodes":[
		{
			"name":"root"
		},
		{
			"name":"tail fin",
			"rotation":[
				-0.7071067094802856,
				0,
				-0.7071068286895752,
				0
			],
			"translation":[
				0,
				-0.47607696056365967,
				0
			]
		},
		{
			"name":"fin.r",
			"rotation":[
				0,
				0,
				-0.7071067690849304,
				0.7071067690849304
			],
			"translation":[
				0.5432254672050476,
				0.01644420623779297,
				0.14464493095874786
			]
		},
		{
			"name":"fin.l",
			"rotation":[
				0,
				0,
				0.7071067690849304,
				0.7071067690849304
			],
			"translation":[
				-0.5432254672050476,
				0.01644420623779297,
				0.14464493095874786
			]
		},
		{
			"name":"mouth",
			"translation":[
				0,
				0.5875674486160278,
				0
			]
		},
		{
			"children":[
				1,
				2,
				3,
				4
			],
			"name":"body",
			"rotation":[
				-0.7071067690849304,
				0,
				0,
				0.7071067690849304
			]
		},
		{
			"mesh":0,
			"name":"pufferfish",
			"skin":0
		},
		{
			"children":[
				6,
				0,
				5
			],
			"name":"pufferFish"
		}
	],
	"materials":[
		{
			"doubleSided":true,
			"name":"pufferfish",
			"normalTexture":{
				"index":0
			},
			"pbrMetallicRoughness":{
				"baseColorTexture":{
					"index":1
				},
				"metallicFactor":0,
				"metallicRoughnessTexture":{
					"index":2
				}
			}
		}
	],
	"meshes":[
		{
			"name":"Mesh",
			"primitives":[
				{
					"attributes":{
						"POSITION":0,
						"NORMAL":1,
						"TEXCOORD_0":2,
						"JOINTS_0":3,
						"WEIGHTS_0":4
					},
					"indices":5,
					"material":0
				}
			]
		}
	],
	"textures":[
		{
			"sampler":0,
			"source":0
		},
		{
			"sampler":0,
			"source":1
		},
		{
			"sampler":0,
			"source":2
		}
	],
	"images":[
		{
			"mimeType":"image/png",
			"name":"puffer fish_DefaultMaterial_Normal",
			"uri":"puffer%20fish_DefaultMaterial_Normal.png"
		},
		{
			"mimeType":"image/png",
			"name":"puffer fish_DefaultMaterial_BaseColor",
			"uri":"puffer%20fish_DefaultMaterial_BaseColor.png"
		},
		{
			"mimeType":"image/png",
			"name":"puffer fish_DefaultMaterial_Roughness",
			"uri":"puffer%20fish_DefaultMaterial_Roughness.png"
		}
	],
	"skins":[
		{
			"inverseBindMatrices":6,
			"joints":[
				0,
				5,
				1,
				2,
				3,
				4
			],
			"name":"pufferFish"
		}
	],
	"accessors":[
		{
			"bufferView":0,
			"componentType":5126,
			"count":24547,
			"max":[
				1.0619796514511108,
				0.9018593430519104,
				1.0812034606933594
			],
			"min":[
				-1.0625494718551636,
				-0.8898066878318787,
				-0.8024590015411377
			],
			"type":"VEC3"
		},
		{
			"bufferView":1,
			"componentType":5126,
			"count":24547,
			"type":"VEC3"
		},
		{
			"bufferView":2,
			"componentType":5126,
			"count":24547,
			"type":"VEC2"
		},
		{
			"bufferView":3,
			"componentType":5121,
			"count":24547,
			"type":"VEC4"
		},
		{
			"bufferView":4,
			"componentType":5126,
			"count":24547,
			"type":"VEC4"
		},
		{
			"bufferView":5,
			"componentType":5123,
			"count":114900,
			"type":"SCALAR"
		},
		{
			"bufferView":6,
			"componentType":5126,
			"count":6,
			"type":"MAT4"
		}
	],
	"bufferViews":[
		{
			"buffer":0,
			"byteLength":294564,
			"byteOffset":0,
			"target":34962
		},
		{
			"buffer":0,
			"byteLength":294564,
			"byteOffset":294564,
			"target":34962
		},
		{
			"buffer":0,
			"byteLength":196376,
			"byteOffset":589128,
			"target":34962
		},
		{
			"buffer":0,
			"byteLength":98188,
			"byteOffset":785504,
			"target":34962
		},
		{
			"buffer":0,
			"byteLength":392752,
			"byteOffset":883692,
			"target":34962
		},
		{
			"buffer":0,
			"byteLength":229800,
			"byteOffset":1276444,
			"target":34963
		},
		{
			"buffer":0,
			"byteLength":384,
			"byteOffset":1506244
		}
	],
	"samplers":[
		{
			"magFilter":9729,
			"minFilter":9987
		}
	],
	"buffers":[
		{
			"byteLength":1506628,
			"uri":"pufferfish.bin"
		}
	]
}
